<?xml version="1.0" ?><svg height="128" id="svg8" version="1.1" viewBox="0 0 33.866666 33.866668" width="128" xmlns="http://www.w3.org/2000/svg" xmlns:cc="http://creativecommons.org/ns#" xmlns:dc="http://purl.org/dc/elements/1.1/" xmlns:inkscape="http://www.inkscape.org/namespaces/inkscape" xmlns:rdf="http://www.w3.org/1999/02/22-rdf-syntax-ns#" xmlns:sodipodi="http://sodipodi.sourceforge.net/DTD/sodipodi-0.dtd" xmlns:svg="http://www.w3.org/2000/svg" xmlns:xlink="http://www.w3.org/1999/xlink"><defs id="defs2"><linearGradient id="linearGradient2202"><stop id="stop2198" offset="0" style="stop-color:#f6f600;stop-opacity:1;"/><stop id="stop2200" offset="1" style="stop-color:#f69134;stop-opacity:1"/></linearGradient><linearGradient gradientTransform="matrix(0.39352029,0,0,0.39352035,-185.27183,93.82285)" gradientUnits="userSpaceOnUse" id="linearGradient3363" x1="12.262755" x2="12.262755" xlink:href="#linearGradient2202" y1="9.0164375" y2="14.680936"/><linearGradient id="linearGradient3728"><stop id="stop3724" offset="0" style="stop-color:#f5f8ff;stop-opacity:1"/><stop id="stop3726" offset="1" style="stop-color:#a0c9ff;stop-opacity:1"/></linearGradient><linearGradient gradientTransform="rotate(45,-4.4878969,-39.989156)" gradientUnits="userSpaceOnUse" id="linearGradient9584" x1="18.262728" x2="22.255419" xlink:href="#linearGradient3728" y1="12.528563" y2="12.528563"/><linearGradient gradientUnits="userSpaceOnUse" id="linearGradient3335" x1="16.933334" x2="16.933334" xlink:href="#linearGradient2202" y1="1.058333" y2="3.7041659"/></defs><g id="layer1"><path d="M 19.388672,92 C 15.295859,92 12,95.295821 12,99.388672 V 111.22461 H 26.775391 V 99.388672 C 26.775391,95.295821 23.481484,92 19.388672,92 Z" id="rect5127-7-4-2" style="fill:#ff005d;fill-opacity:1;stroke-width:1.21554;stroke-linecap:square;stroke-dasharray:1.21554, 4.86216999999999988;paint-order:markers fill stroke" transform="scale(0.26458333)"/><path d="m 78.869141,46 c -4.092813,0 -7.388672,3.295821 -7.388672,7.388672 V 111.22461 H 86.257812 V 53.388672 C 86.257812,49.295821 82.961953,46 78.869141,46 Z" id="path5764" style="fill:#00a1ff;fill-opacity:1;stroke-width:1.21554;stroke-linecap:square;stroke-dasharray:1.21554, 4.86216999999999988;paint-order:markers fill stroke" transform="scale(0.26458333)"/><path d="m 49.128906,66 c -4.092812,0 -7.388672,3.295821 -7.388672,7.388672 V 111.22461 H 56.515625 V 73.388672 C 56.515625,69.295821 53.221719,66 49.128906,66 Z" id="path5768" style="fill:#ffb43f;fill-opacity:1;stroke-width:1.21554;stroke-linecap:square;stroke-dasharray:1.21554, 4.86216999999999988;paint-order:markers fill stroke" transform="scale(0.26458333)"/><path d="m 108.61133,16 c -4.09281,0 -7.38867,3.293869 -7.38867,7.386719 v 87.837891 h 14.77539 V 23.386719 C 115.99805,19.293869 112.70414,16 108.61133,16 Z" id="path5772" style="fill:#59d96b;fill-opacity:1;stroke-width:1.21554;stroke-linecap:square;stroke-dasharray:1.21554, 4.86216999999999988;paint-order:markers fill stroke" transform="scale(0.26458333)"/><path d="m 30.840404,32.808334 -27.8604101,0 c -1.0829001,0 -1.9547001,-0.87178 -1.9547001,-1.95467 0,-1.08289 0.8718,-1.95467 1.9547,-1.95467 l 27.8604102,0 c 1.0829,0 1.9546,0.87178 1.9546,1.95467 0,1.08289 -0.8717,1.95467 -1.9546,1.95467 z" id="path5776" style="fill:#c0e0ff;fill-opacity:1;stroke-width:0.321612;stroke-linecap:square;stroke-dasharray:0.321612, 1.28645000000000009;paint-order:markers fill stroke"/><path d="m 17.673857,1.058333 c -1.518485,-0.00803 -1.487488,1.9634034 -0.415996,2.2505087 L 5.5138756,10.735262 c -0.5699728,0.416288 -0.6051331,1.035432 -0.3545003,1.461409 0.2488641,0.431045 0.812302,0.707375 1.4588256,0.450619 L 18.92288,6.1923535 C 18.53,7.6586006 20.455286,8.1070353 21.079853,6.9576817 l 1.67225,-3.3930746 C 23.016134,3.0573007 22.939079,2.4958872 22.703007,2.0877275 22.467565,1.6792036 22.020204,1.3319063 21.44882,1.3068966 Z" id="path13909" style="color:#000000;font-style:normal;font-variant:normal;font-weight:normal;font-stretch:normal;font-size:medium;line-height:normal;font-family:sans-serif;font-variant-ligatures:normal;font-variant-position:normal;font-variant-caps:normal;font-variant-numeric:normal;font-variant-alternates:normal;font-variant-east-asian:normal;font-feature-settings:normal;font-variation-settings:normal;text-indent:0;text-align:start;text-decoration:none;text-decoration-line:none;text-decoration-style:solid;text-decoration-color:#000000;letter-spacing:normal;word-spacing:normal;text-transform:none;writing-mode:lr-tb;direction:ltr;text-orientation:mixed;dominant-baseline:auto;baseline-shift:baseline;text-anchor:start;white-space:normal;shape-padding:0;shape-margin:0;inline-size:0;clip-rule:nonzero;display:inline;overflow:visible;visibility:visible;isolation:auto;mix-blend-mode:normal;color-interpolation:sRGB;color-interpolation-filters:linearRGB;solid-color:#000000;solid-opacity:1;vector-effect:none;fill:#00a1ff;fill-opacity:1;fill-rule:nonzero;stroke:none;stroke-width:3.68242;stroke-linecap:round;stroke-linejoin:round;stroke-miterlimit:4;stroke-dasharray:none;stroke-dashoffset:0;stroke-opacity:1;paint-order:markers fill stroke;color-rendering:auto;image-rendering:auto;shape-rendering:auto;text-rendering:auto;enable-background:accumulate;stop-color:#000000"/></g></svg>